<?xml version="1.0" encoding="UTF-8"?>
<svg xmlns="http://www.w3.org/2000/svg" xmlns:xlink="http://www.w3.org/1999/xlink" width="240px" height="132px" viewBox="0 0 240 132" version="1.1">
<g id="surface1">
<path style=" stroke:none;fill-rule:nonzero;fill:rgb(86.274511%,24.313726%,8.235294%);fill-opacity:1;" d="M 49.429688 78.535156 C 49.492188 78.214844 49.507812 55.070312 49.449219 54.566406 C 44.679688 55.5 39.921875 56.4375 35.140625 57.375 L 35.140625 73.691406 C 32.6875 74.484375 30.234375 75.273438 27.777344 76.066406 C 27.761719 76.058594 27.75 76.054688 27.738281 76.046875 C 27.726562 76.039062 27.710938 76.03125 27.710938 76.019531 C 27.703125 75.960938 27.695312 75.898438 27.695312 75.835938 C 27.691406 69.246094 27.691406 62.652344 27.691406 56.074219 C 27.800781 55.964844 27.945312 55.949219 28.066406 55.914062 C 35.074219 53.75 42.078125 51.585938 49.085938 49.421875 C 49.328125 49.347656 49.546875 49.308594 49.816406 49.375 C 53.660156 50.296875 57.507812 51.207031 61.355469 52.117188 C 61.410156 52.132812 61.46875 52.148438 61.546875 52.171875 L 61.546875 79.957031 C 60.441406 80.210938 59.347656 80.464844 58.25 80.710938 C 55.460938 81.347656 52.671875 81.976562 49.882812 82.617188 C 49.609375 82.679688 49.371094 82.671875 49.105469 82.59375 C 42.214844 80.492188 35.320312 78.398438 28.429688 76.300781 C 28.292969 76.261719 28.160156 76.214844 28.042969 76.113281 C 35.171875 76.921875 42.300781 77.726562 49.429688 78.535156 Z M 101.550781 63.691406 L 98.621094 63.691406 L 98.621094 61.753906 L 101.429688 61.753906 C 101.597656 61.628906 101.550781 61.511719 101.550781 61.40625 C 101.554688 60.714844 101.550781 60.023438 101.554688 59.332031 C 101.554688 58.507812 101.71875 57.707031 102.191406 56.96875 C 103.152344 55.472656 104.671875 54.664062 106.730469 54.566406 C 107.40625 54.535156 108.082031 54.558594 108.742188 54.710938 C 108.855469 54.738281 108.964844 54.773438 109.089844 54.808594 L 109.089844 56.8125 C 108.957031 56.867188 108.867188 56.78125 108.761719 56.746094 C 108.015625 56.503906 107.25 56.433594 106.464844 56.574219 C 105.71875 56.707031 105.160156 57.046875 104.800781 57.609375 C 104.578125 57.960938 104.441406 58.34375 104.402344 58.742188 C 104.292969 59.722656 104.367188 60.710938 104.351562 61.71875 L 111.058594 61.71875 C 111.15625 61.621094 111.117188 61.515625 111.117188 61.421875 C 111.121094 60.679688 111.109375 59.941406 111.125 59.199219 C 111.148438 57.886719 111.644531 56.730469 112.800781 55.792969 C 113.703125 55.058594 114.800781 54.667969 116.050781 54.578125 C 116.769531 54.527344 117.492188 54.542969 118.199219 54.6875 C 118.359375 54.71875 118.527344 54.734375 118.664062 54.839844 L 118.664062 56.855469 C 118.207031 56.710938 117.777344 56.578125 117.316406 56.53125 C 116.84375 56.484375 116.382812 56.5 115.929688 56.59375 C 115.167969 56.75 114.625 57.132812 114.300781 57.71875 C 114.074219 58.128906 113.949219 58.5625 113.933594 59.007812 C 113.914062 59.871094 113.921875 60.738281 113.917969 61.601562 C 113.917969 61.636719 113.9375 61.671875 113.960938 61.742188 L 117.964844 61.742188 L 117.964844 63.679688 L 113.917969 63.679688 L 113.917969 76.023438 L 111.128906 76.023438 C 111.109375 75.445312 111.125 74.859375 111.121094 74.273438 C 111.117188 73.691406 111.121094 73.113281 111.121094 72.53125 L 111.121094 63.703125 L 104.355469 63.703125 L 104.355469 76.019531 L 101.5625 76.019531 C 101.539062 75.582031 101.554688 75.132812 101.554688 74.683594 C 101.550781 74.226562 101.550781 73.769531 101.550781 73.3125 Z M 73.757812 66.273438 C 73.785156 64.332031 74.140625 62.492188 75.15625 60.765625 C 76.722656 58.101562 79.300781 56.503906 82.800781 55.902344 C 84.890625 55.546875 86.984375 55.554688 89.035156 56.078125 C 92.386719 56.933594 94.636719 58.769531 95.890625 61.441406 C 96.699219 63.167969 96.902344 64.964844 96.761719 66.796875 C 96.667969 68.007812 96.417969 69.199219 95.90625 70.339844 C 94.421875 73.667969 91.566406 75.667969 87.316406 76.246094 C 84.949219 76.566406 82.609375 76.410156 80.382812 75.609375 C 77.558594 74.589844 75.703125 72.828125 74.628906 70.472656 C 74.007812 69.105469 73.773438 67.679688 73.757812 66.273438 Z M 93.808594 65.941406 C 93.789062 65.664062 93.777344 65.253906 93.738281 64.851562 C 93.617188 63.636719 93.3125 62.457031 92.652344 61.359375 C 91.773438 59.898438 90.457031 58.808594 88.574219 58.230469 C 87.652344 57.945312 86.695312 57.820312 85.710938 57.804688 C 82.421875 57.746094 79.910156 58.855469 78.234375 61.1875 C 77.402344 62.34375 76.96875 63.613281 76.832031 64.941406 C 76.652344 66.644531 76.824219 68.320312 77.605469 69.925781 C 78.445312 71.664062 79.832031 72.984375 81.949219 73.734375 C 83.289062 74.207031 84.695312 74.324219 86.140625 74.21875 C 89.292969 73.992188 91.527344 72.695312 92.835938 70.332031 C 93.582031 68.980469 93.78125 67.535156 93.808594 65.941406 Z M 194.398438 56.246094 L 194.398438 58.332031 C 194.28125 58.398438 194.195312 58.332031 194.105469 58.296875 C 193.113281 57.921875 192.078125 57.699219 190.984375 57.636719 C 189.058594 57.527344 187.40625 58.003906 186.074219 59.171875 C 185.125 60.007812 184.492188 61 184.0625 62.078125 C 183.523438 63.425781 183.34375 64.820312 183.328125 66.253906 C 183.527344 66.222656 183.542969 66.082031 183.605469 65.984375 C 184.230469 65.097656 185.054688 64.386719 186.207031 63.953125 C 186.871094 63.707031 187.566406 63.566406 188.292969 63.53125 C 189.316406 63.472656 190.332031 63.519531 191.316406 63.789062 C 193.335938 64.339844 194.691406 65.472656 195.390625 67.101562 C 196.164062 68.898438 196.121094 70.71875 195.269531 72.496094 C 194.042969 75.050781 191.257812 76.488281 187.859375 76.375 C 185.605469 76.300781 183.835938 75.492188 182.53125 73.992188 C 181.632812 72.960938 181.113281 71.796875 180.808594 70.5625 C 180.386719 68.855469 180.355469 67.132812 180.527344 65.402344 C 180.691406 63.78125 181.101562 62.207031 181.886719 60.707031 C 182.613281 59.3125 183.617188 58.085938 185.085938 57.140625 C 186.59375 56.171875 188.308594 55.695312 190.21875 55.675781 C 191.320312 55.667969 192.410156 55.730469 193.476562 55.972656 C 193.777344 56.039062 194.078125 56.121094 194.398438 56.246094 Z M 183.503906 69.851562 C 183.519531 70.898438 183.957031 72.136719 185.066406 73.183594 C 186.496094 74.53125 188.605469 74.699219 190.234375 74.113281 C 191.574219 73.632812 192.375 72.738281 192.773438 71.609375 C 193.195312 70.40625 193.15625 69.195312 192.6875 68.003906 C 192.265625 66.929688 191.457031 66.113281 190.140625 65.710938 C 189.148438 65.402344 188.117188 65.363281 187.089844 65.582031 C 184.9375 66.03125 183.492188 67.636719 183.503906 69.851562 M 199.082031 65.988281 C 199.355469 62.695312 199.628906 59.375 199.90625 56.035156 L 211.148438 56.035156 L 211.148438 58.03125 C 211.148438 58.03125 211.140625 58.042969 211.128906 58.050781 C 211.0625 58.078125 211.035156 58.085938 211.003906 58.085938 L 202.34375 58.085938 C 202.160156 60.03125 202 61.96875 201.851562 63.898438 C 202.039062 63.976562 202.191406 63.933594 202.335938 63.929688 C 203.503906 63.902344 204.675781 63.839844 205.839844 63.976562 C 207.339844 64.152344 208.726562 64.546875 209.914062 65.339844 C 211.136719 66.152344 211.863281 67.210938 212.136719 68.46875 C 212.414062 69.738281 212.382812 71.007812 211.851562 72.234375 C 211.058594 74.0625 209.476562 75.25 207.289062 75.914062 C 205.910156 76.332031 204.480469 76.40625 203.03125 76.375 C 201.945312 76.351562 200.875 76.257812 199.832031 75.992188 C 199.492188 75.90625 199.15625 75.789062 198.839844 75.652344 C 198.714844 75.601562 198.617188 75.542969 198.617188 75.40625 C 198.621094 74.667969 198.621094 73.929688 198.621094 73.167969 C 198.78125 73.160156 198.867188 73.234375 198.960938 73.28125 C 200.1875 73.882812 201.5 74.285156 202.929688 74.390625 C 204.144531 74.484375 205.335938 74.402344 206.457031 73.980469 C 208.191406 73.324219 209.183594 72.210938 209.390625 70.640625 C 209.472656 70.03125 209.441406 69.429688 209.246094 68.839844 C 208.851562 67.632812 207.902344 66.824219 206.519531 66.351562 C 205.691406 66.066406 204.824219 65.933594 203.933594 65.90625 C 202.417969 65.867188 200.902344 65.894531 199.390625 66.03125 C 199.308594 66.039062 199.214844 66.070312 199.082031 65.988281 Z M 156.367188 69.472656 L 144.136719 69.472656 C 144.082031 69.980469 144.191406 70.449219 144.304688 70.917969 C 144.480469 71.617188 144.796875 72.265625 145.332031 72.832031 C 146.179688 73.726562 147.316406 74.207031 148.664062 74.355469 C 150.878906 74.601562 152.890625 74.160156 154.71875 73.117188 C 154.828125 73.054688 154.941406 72.996094 155.054688 72.9375 C 155.066406 72.933594 155.082031 72.9375 155.101562 72.9375 C 155.183594 73.039062 155.144531 73.152344 155.144531 73.257812 C 155.148438 73.726562 155.128906 74.199219 155.152344 74.664062 C 155.171875 74.9375 155.046875 75.089844 154.773438 75.226562 C 153.890625 75.675781 152.917969 75.992188 151.902344 76.160156 C 150.355469 76.417969 148.800781 76.488281 147.25 76.246094 C 144.664062 75.835938 142.941406 74.554688 141.953125 72.574219 C 141.570312 71.804688 141.363281 70.996094 141.277344 70.167969 C 141.125 68.753906 141.199219 67.355469 141.777344 66 C 142.523438 64.257812 143.777344 62.855469 145.835938 62.023438 C 147.867188 61.203125 149.976562 61.15625 152.082031 61.800781 C 153.914062 62.359375 155.0625 63.496094 155.746094 64.972656 C 156.136719 65.824219 156.3125 66.714844 156.359375 67.617188 C 156.390625 68.214844 156.367188 68.820312 156.367188 69.472656 M 153.503906 67.503906 C 153.492188 66.472656 153.277344 65.519531 152.566406 64.675781 C 152.175781 64.207031 151.667969 63.835938 151.019531 63.636719 C 149.460938 63.160156 147.941406 63.21875 146.554688 64.019531 C 145.105469 64.859375 144.425781 66.078125 144.144531 67.503906 Z M 165.890625 66.613281 L 165.890625 64.753906 C 166.074219 64.683594 166.238281 64.714844 166.402344 64.714844 C 167.332031 64.707031 168.261719 64.734375 169.191406 64.648438 C 169.96875 64.578125 170.734375 64.453125 171.453125 64.191406 C 172.902344 63.65625 173.667969 62.722656 173.78125 61.425781 C 173.824219 60.917969 173.8125 60.414062 173.660156 59.917969 C 173.292969 58.691406 172.300781 58.003906 170.835938 57.757812 C 168.746094 57.40625 166.8125 57.734375 165.027344 58.683594 C 164.925781 58.734375 164.828125 58.792969 164.726562 58.847656 C 164.644531 58.894531 164.558594 58.945312 164.402344 59.03125 C 164.398438 58.621094 164.394531 58.261719 164.394531 57.902344 C 164.390625 57.546875 164.394531 57.1875 164.394531 56.824219 C 165.214844 56.40625 166.089844 56.125 167.015625 55.949219 C 168.75 55.617188 170.496094 55.535156 172.234375 55.90625 C 173.96875 56.277344 175.335938 57.066406 176.148438 58.421875 C 176.683594 59.316406 176.742188 60.273438 176.621094 61.242188 C 176.550781 61.808594 176.375 62.359375 176.078125 62.878906 C 175.492188 63.894531 174.53125 64.59375 173.320312 65.074219 C 172.957031 65.21875 172.570312 65.324219 172.195312 65.445312 C 172.101562 65.476562 171.984375 65.46875 171.917969 65.582031 C 172.492188 65.667969 173.058594 65.746094 173.597656 65.910156 C 175.453125 66.472656 176.863281 67.449219 177.335938 69.0625 C 177.957031 71.199219 177.339844 73.105469 175.332031 74.625 C 174.164062 75.511719 172.753906 76.015625 171.195312 76.226562 C 169.214844 76.496094 167.25 76.445312 165.3125 75.988281 C 164.746094 75.855469 164.210938 75.664062 163.699219 75.425781 C 163.546875 75.351562 163.445312 75.277344 163.445312 75.109375 C 163.457031 74.394531 163.453125 73.679688 163.457031 72.964844 C 163.457031 72.945312 163.484375 72.925781 163.515625 72.882812 C 163.648438 72.957031 163.78125 73.03125 163.914062 73.105469 C 166.148438 74.347656 168.585938 74.710938 171.210938 74.199219 C 171.917969 74.0625 172.558594 73.789062 173.125 73.410156 C 174.0625 72.785156 174.5625 71.96875 174.664062 70.988281 C 174.71875 70.46875 174.683594 69.953125 174.519531 69.445312 C 174.246094 68.601562 173.652344 67.964844 172.757812 67.511719 C 171.960938 67.113281 171.082031 66.914062 170.175781 66.792969 C 168.9375 66.625 167.691406 66.652344 166.445312 66.648438 C 166.269531 66.648438 166.085938 66.679688 165.890625 66.613281 M 139.25 62.117188 L 139.25 64.402344 C 139.0625 64.402344 138.945312 64.289062 138.8125 64.222656 C 137.554688 63.605469 136.207031 63.292969 134.734375 63.359375 C 132.566406 63.457031 131.003906 64.335938 129.945312 65.863281 C 129.472656 66.546875 129.214844 67.292969 129.117188 68.074219 C 128.980469 69.136719 129.03125 70.195312 129.433594 71.222656 C 130.207031 73.179688 132.210938 74.386719 134.710938 74.421875 C 136.203125 74.445312 137.554688 74.109375 138.792969 73.441406 C 138.917969 73.375 139.023438 73.28125 139.207031 73.25 L 139.207031 75.371094 C 139.152344 75.445312 139.023438 75.484375 138.902344 75.535156 C 136.199219 76.613281 133.445312 76.726562 130.691406 75.699219 C 128.714844 74.957031 127.417969 73.660156 126.742188 71.988281 C 125.808594 69.675781 125.945312 67.371094 127.261719 65.183594 C 128.605469 62.960938 130.871094 61.75 133.863281 61.453125 C 135.4375 61.296875 136.980469 61.382812 138.480469 61.828125 C 138.734375 61.90625 138.984375 61.984375 139.25 62.117188 M 123.285156 76.046875 L 120.613281 76.046875 C 120.515625 75.765625 120.472656 62.539062 120.566406 61.796875 C 120.886719 61.730469 122.664062 61.710938 123.285156 61.769531 C 123.347656 62.054688 123.355469 75.648438 123.285156 76.046875 M 120.152344 56.589844 C 120.171875 55.746094 120.984375 55.117188 122.027344 55.136719 C 123.066406 55.15625 123.847656 55.820312 123.816406 56.660156 C 123.789062 57.492188 122.957031 58.132812 121.929688 58.117188 C 120.882812 58.097656 120.132812 57.453125 120.152344 56.589844 Z M 120.152344 56.589844 "/>
</g>
</svg>
